<svg xmlns="http://www.w3.org/2000/svg" width="512" height="512" viewBox="0 0 512 512">
  <!-- Hintergrund -->
  <rect width="512" height="512" rx="100" fill="#1a2e1a"/>

  <!-- HELM gross -->
  <path d="M136,245 Q136,135 256,135 Q376,135 376,245" fill="#22c55e"/>
  <rect x="120" y="242" width="272" height="20" rx="10" fill="#16a34a"/>
  <path d="M120,242 Q102,242 99,250 Q102,260 120,258" fill="#15803d"/>
  <!-- Lüftungsschlitze -->
  <rect x="242" y="151" width="10" height="28" rx="5" fill="#15803d"/>
  <rect x="256" y="145" width="10" height="34" rx="5" fill="#15803d"/>
  <rect x="270" y="151" width="10" height="28" rx="5" fill="#15803d"/>
  <!-- Blitz -->
  <polygon points="272,165 250,205 265,205 256,242 286,196 268,196" fill="#ffffff" opacity="0.95"/>
  <!-- Leuchteffekt -->
  <ellipse cx="256" cy="266" rx="100" ry="13" fill="#22c55e" opacity="0.18"/>

  <!-- TEXT -->
  <text x="256" y="308" font-family="Arial Black, Arial, sans-serif" font-size="48" font-weight="900" fill="#ffffff" text-anchor="middle">Bau<tspan fill="#22c55e">Assistent</tspan></text>
  <line x1="90" y1="322" x2="422" y2="322" stroke="#22c55e" stroke-width="2" opacity="0.35"/>
  <text x="256" y="354" font-family="Arial, sans-serif" font-size="28" fill="#4ade80" text-anchor="middle" letter-spacing="10">P R O</text>

  <!-- TONWELLEN Standbild -->
  <g opacity="0.6">
    <rect x="112" y="400" width="14" height="44" rx="7" fill="#22c55e"/>
    <rect x="132" y="388" width="14" height="56" rx="7" fill="#22c55e"/>
    <rect x="152" y="406" width="14" height="38" rx="7" fill="#22c55e"/>
    <rect x="172" y="382" width="14" height="62" rx="7" fill="#22c55e"/>
    <rect x="192" y="396" width="14" height="48" rx="7" fill="#22c55e"/>
    <rect x="212" y="376" width="14" height="68" rx="7" fill="#22c55e"/>
    <rect x="232" y="390" width="14" height="54" rx="7" fill="#22c55e"/>
    <rect x="252" y="370" width="14" height="74" rx="7" fill="#22c55e"/>
    <rect x="272" y="392" width="14" height="52" rx="7" fill="#22c55e"/>
    <rect x="292" y="384" width="14" height="60" rx="7" fill="#22c55e"/>
    <rect x="312" y="402" width="14" height="42" rx="7" fill="#22c55e"/>
    <rect x="332" y="388" width="14" height="56" rx="7" fill="#22c55e"/>
    <rect x="352" y="398" width="14" height="46" rx="7" fill="#22c55e"/>
    <rect x="372" y="386" width="14" height="58" rx="7" fill="#22c55e"/>
    <rect x="392" y="404" width="14" height="40" rx="7" fill="#22c55e"/>
  </g>

  <!-- Tagline -->
  <text x="256" y="480" font-family="Arial, sans-serif" font-size="16" fill="#4ade80" text-anchor="middle" letter-spacing="3" opacity="0.55">DIGITAL. STARK. FÜRS HANDWERK.</text>
</svg>
