<svg xmlns="http://www.w3.org/2000/svg" width="40" height="40" viewBox="0 0 40 40">
  <rect width="40" height="40" rx="10" fill="#1a2e1a"/>
  <!-- Helm -->
  <path d="M6,24 Q6,8 20,8 Q34,8 34,24" fill="#22c55e"/>
  <rect x="4" y="23" width="32" height="5" rx="2.5" fill="#16a34a"/>
  <path d="M4,23 Q0,23 0,26 Q0,29 4,28" fill="#15803d"/>
  <!-- Lüftungsschlitze -->
  <rect x="16" y="11" width="2.5" height="6" rx="1.25" fill="#15803d"/>
  <rect x="19.5" y="10" width="2.5" height="7" rx="1.25" fill="#15803d"/>
  <rect x="23" y="11" width="2.5" height="6" rx="1.25" fill="#15803d"/>
  <!-- Blitz -->
  <polygon points="23,13 17,22 21,22 19,30 26,19 22,19" fill="#ffffff" opacity="0.95"/>
  <!-- Leuchteffekt -->
  <ellipse cx="20" cy="29" rx="12" ry="2.5" fill="#22c55e" opacity="0.2"/>
</svg>
