<svg xmlns="http://www.w3.org/2000/svg" width="400" height="160" viewBox="0 0 400 160">
  <!-- Hintergrund -->
  <rect width="400" height="160" rx="16" fill="#ffffff" stroke="#e2e8f0" stroke-width="1"/>

  <!-- HELM -->
  <path d="M95,100 Q95,52 140,52 Q185,52 185,100" fill="#22c55e"/>
  <rect x="84" y="98" width="112" height="11" rx="5.5" fill="#16a34a"/>
  <path d="M84,98 Q74,98 72,103 Q74,109 84,107" fill="#15803d"/>
  <rect x="130" y="60" width="5" height="14" rx="2.5" fill="#15803d"/>
  <rect x="138" y="57" width="5" height="17" rx="2.5" fill="#15803d"/>
  <rect x="146" y="60" width="5" height="14" rx="2.5" fill="#15803d"/>
  <polygon points="146,66 135,84 143,84 138,100 154,77 144,77" fill="#ffffff" opacity="0.95"/>
  <ellipse cx="140" cy="111" rx="44" ry="6" fill="#22c55e" opacity="0.15"/>

  <!-- TEXT -->
  <text x="215" y="82" font-family="Arial Black, Arial, sans-serif" font-size="30" font-weight="900" fill="#0f1923">Bau<tspan fill="#16a34a">Assistent</tspan></text>
  <line x1="215" y1="94" x2="385" y2="94" stroke="#22c55e" stroke-width="1" opacity="0.35"/>
  <text x="215" y="114" font-family="Arial, sans-serif" font-size="13" fill="#16a34a" letter-spacing="6">P R O</text>
  <text x="215" y="134" font-family="Arial, sans-serif" font-size="9" fill="#94a3b8" letter-spacing="2">DIGITAL. STARK. FÜRS HANDWERK.</text>
</svg>
