<svg xmlns="http://www.w3.org/2000/svg" width="300" height="300" viewBox="0 0 300 300">
  <g transform="translate(150,150) rotate(-35)" opacity="0.18">
    <!-- Helm -->
    <path d="M-42,12 Q-42,-32 0,-32 Q42,-32 42,12" fill="#22c55e"/>
    <rect x="-48" y="10" width="96" height="9" rx="4.5" fill="#16a34a"/>
    <path d="M-48,10 Q-58,10 -60,15 Q-58,21 -48,19" fill="#15803d"/>
    <rect x="-10" y="-22" width="5" height="13" rx="2.5" fill="#15803d"/>
    <rect x="-2" y="-25" width="5" height="16" rx="2.5" fill="#15803d"/>
    <rect x="6" y="-22" width="5" height="13" rx="2.5" fill="#15803d"/>
    <polygon points="6,-16 -5,2 2,2 -2,18 14,-4 5,-4" fill="#ffffff"/>
    <!-- Text -->
    <text x="0" y="42" font-family="Arial Black, Arial, sans-serif" font-size="24" font-weight="900" fill="#22c55e" text-anchor="middle">BauAssistent</text>
    <text x="0" y="62" font-family="Arial, sans-serif" font-size="14" fill="#22c55e" text-anchor="middle" letter-spacing="5">P R O</text>
  </g>
</svg>
